<svg width="30" height="30" viewBox="0 0 30 30" fill="none" xmlns="http://www.w3.org/2000/svg">
<path fill-rule="evenodd" clip-rule="evenodd" d="M15.0983 0.413635C6.92192 0.413635 0.291016 7.04364 0.291016 15.2227C0.291016 21.7655 4.53374 27.3154 10.4183 29.2736C11.1592 29.41 11.4292 28.9527 11.4292 28.56C11.4292 28.2091 11.4165 27.2773 11.4092 26.0418C7.2901 26.9364 6.42101 24.0564 6.42101 24.0564C5.74738 22.3455 4.77646 21.89 4.77646 21.89C3.43192 20.9718 4.87828 20.99 4.87828 20.99C6.36464 21.0945 7.14646 22.5164 7.14646 22.5164C8.46737 24.7791 10.6128 24.1255 11.4565 23.7464C11.591 22.79 11.9737 22.1373 12.3965 21.7673C9.10828 21.3936 5.65101 20.1227 5.65101 14.4482C5.65101 12.8318 6.22829 11.5091 7.17556 10.4745C7.02283 10.1 6.51464 8.59363 7.321 6.55545C7.321 6.55545 8.56373 6.15727 11.3928 8.07363C12.5737 7.74454 13.841 7.58091 15.1001 7.57454C16.3583 7.58091 17.6246 7.74454 18.8074 8.07363C21.6346 6.15727 22.8755 6.55545 22.8755 6.55545C23.6837 8.59363 23.1756 10.1 23.0237 10.4745C23.9728 11.5091 24.5456 12.8318 24.5456 14.4482C24.5456 20.1373 21.0828 21.3891 17.7846 21.7555C18.3156 22.2127 18.7892 23.1164 18.7892 24.4982C18.7892 26.4773 18.771 28.0745 18.771 28.56C18.771 28.9564 19.0383 29.4173 19.7892 29.2727C25.6692 27.31 29.9083 21.7636 29.9083 15.2227C29.9083 7.04364 23.2774 0.413635 15.0983 0.413635Z" fill="#38464A"/>
</svg>
