<svg width="30" height="30" viewBox="0 0 30 30" fill="none" xmlns="http://www.w3.org/2000/svg">
<g clip-path="url(#clip0)">
<path fill-rule="evenodd" clip-rule="evenodd" d="M27.4167 17.1327L24.1855 14.9712L27.4167 12.8098V17.1327ZM16.2628 26.2947V20.2704L21.8624 16.5255L26.3825 19.5486L16.2628 26.2947ZM14.9714 18.0268L10.403 14.9712L14.9714 11.9156L19.5393 14.9712L14.9714 18.0268ZM13.6795 26.2947L3.55965 19.5486L8.08025 16.5255L13.6795 20.2704V26.2947ZM2.52564 12.8098L5.7571 14.9712L2.52564 17.1327V12.8098ZM13.6795 3.64764V9.6719L8.08025 13.4177L3.55965 10.3937L13.6795 3.64764ZM16.2628 3.64764L26.3825 10.3937L21.8624 13.4177L16.2628 9.6719V3.64764ZM29.9884 10.2237C29.9857 10.2048 29.9809 10.1866 29.9778 10.1677C29.9714 10.1312 29.9648 10.0948 29.9553 10.0593C29.9497 10.0379 29.9418 10.0174 29.9351 9.99687C29.9248 9.96517 29.9145 9.93356 29.9019 9.90278C29.8931 9.88143 29.8829 9.86008 29.8731 9.83957C29.8595 9.81024 29.8454 9.78174 29.8291 9.75418C29.8173 9.73355 29.8047 9.71376 29.7924 9.69407C29.775 9.66713 29.7572 9.64101 29.7377 9.61573C29.7236 9.59676 29.7086 9.5778 29.6936 9.55956C29.673 9.53593 29.6516 9.5122 29.6291 9.49003C29.6122 9.47272 29.5955 9.45531 29.5777 9.43946C29.554 9.41811 29.5295 9.39749 29.5046 9.3778C29.4853 9.36277 29.4662 9.34774 29.4461 9.33355C29.4386 9.32878 29.4319 9.32246 29.4248 9.31769L15.6875 0.159595C15.2536 -0.129736 14.6887 -0.129736 14.2547 0.159595L0.517522 9.31769C0.510372 9.32246 0.503637 9.32878 0.496175 9.33355C0.475968 9.34774 0.457003 9.36277 0.438039 9.3778C0.412754 9.39749 0.388193 9.41811 0.364981 9.43946C0.346742 9.45531 0.330161 9.47272 0.313166 9.49003C0.290679 9.5122 0.269332 9.53593 0.249124 9.55956C0.233683 9.5778 0.218657 9.59676 0.20446 9.61573C0.185496 9.64101 0.167257 9.66713 0.150262 9.69407C0.137205 9.71376 0.124976 9.73355 0.113163 9.75418C0.0973074 9.78174 0.0831106 9.81024 0.0692244 9.83957C0.0593796 9.86008 0.0491204 9.88143 0.0404156 9.90278C0.0277729 9.93356 0.0175137 9.96517 0.00715081 9.99687C0.000414941 10.0174 -0.00704636 10.0379 -0.0129532 10.0593C-0.022487 10.0948 -0.0288086 10.1312 -0.0355445 10.1677C-0.0386534 10.1866 -0.0434202 10.2048 -0.0458037 10.2237C-0.0533686 10.2791 -0.0576172 10.3352 -0.0576172 10.3921V19.5502C-0.0576172 19.6071 -0.0533686 19.6633 -0.0458037 19.7194C-0.0434202 19.7377 -0.0386534 19.7565 -0.0355445 19.7747C-0.0288086 19.8111 -0.022487 19.8474 -0.0129532 19.8831C-0.00704636 19.9044 0.000414941 19.9249 0.00715081 19.9456C0.0175137 19.9771 0.0277729 20.0088 0.0404156 20.0404C0.0491204 20.0618 0.0593796 20.0823 0.0692244 20.1029C0.0831106 20.132 0.0973074 20.1605 0.113163 20.189C0.124976 20.2089 0.137205 20.2285 0.150262 20.2483C0.167257 20.2752 0.185496 20.3013 0.20446 20.3266C0.218657 20.3464 0.233683 20.3645 0.249124 20.3827C0.269332 20.4064 0.290679 20.4301 0.313166 20.4523C0.330161 20.4696 0.346742 20.487 0.364981 20.5028C0.388193 20.5243 0.412754 20.5448 0.438039 20.5645C0.457003 20.5797 0.475968 20.5946 0.496175 20.6088C0.503637 20.6135 0.510372 20.6199 0.517522 20.6245L14.2547 29.7827C14.4717 29.9274 14.7215 30.0001 14.9714 30.0001C15.2208 30.0001 15.4705 29.9274 15.6875 29.7827L29.4248 20.6245C29.4319 20.6199 29.4386 20.6135 29.4461 20.6088C29.4662 20.5946 29.4853 20.5797 29.5046 20.5645C29.5295 20.5448 29.554 20.5243 29.5777 20.5028C29.5955 20.487 29.6122 20.4696 29.6291 20.4523C29.6516 20.4301 29.673 20.4064 29.6936 20.3827C29.7086 20.3645 29.7236 20.3464 29.7377 20.3266C29.7572 20.3013 29.775 20.2752 29.7924 20.2483C29.8047 20.2285 29.8173 20.2089 29.8291 20.189C29.8454 20.1605 29.8595 20.132 29.8731 20.1029C29.8829 20.0823 29.8931 20.0618 29.9019 20.0404C29.9145 20.0088 29.9248 19.9771 29.9351 19.9456C29.9418 19.9249 29.9497 19.9044 29.9553 19.8831C29.9648 19.8474 29.9714 19.8111 29.9778 19.7747C29.9809 19.7565 29.9857 19.7377 29.9884 19.7194C29.9956 19.6633 30 19.6071 30 19.5502V10.3921C30 10.3352 29.9956 10.2791 29.9884 10.2237Z" fill="#38464A"/>
</g>
<defs>
<clipPath id="clip0">
<path d="M0 0H30V30H0V0Z" fill="white"/>
</clipPath>
</defs>
</svg>
