<svg width="58" height="58" viewBox="0 0 58 58" fill="none" xmlns="http://www.w3.org/2000/svg">
<rect y="-6.10352e-05" width="58" height="58" rx="8" fill="#F7E841"/>
<path d="M10.9727 18.0292C10.2109 17.2506 9.83008 16.3196 9.83008 15.2363C9.83008 14.1529 10.2109 13.2304 10.9727 12.4687C11.7513 11.707 12.6738 11.3261 13.7402 11.3261C14.8405 11.3261 15.7715 11.707 16.5332 12.4687C17.3118 13.2304 17.7012 14.1529 17.7012 15.2363C17.7012 16.3196 17.3118 17.2506 16.5332 18.0292C15.7715 18.791 14.8405 19.1718 13.7402 19.1718C12.6738 19.1718 11.7513 18.791 10.9727 18.0292ZM10.4648 46.9999V21.8886H17.0664V46.9999H10.4648ZM22.0176 34.4062C22.0176 30.3945 23.0501 27.2037 25.1152 24.8339C27.1973 22.4472 29.8717 21.2538 33.1387 21.2538C34.6621 21.2538 36.0924 21.5839 37.4297 22.2441C38.7669 22.8873 39.918 23.8437 40.8828 25.1132V12.3163H47.5352V46.9999H40.8828V43.7753C38.8346 46.3482 36.2533 47.6347 33.1387 47.6347C29.8887 47.6347 27.2227 46.4583 25.1406 44.1054C23.0586 41.7525 22.0176 38.5195 22.0176 34.4062ZM28.8223 34.4062C28.8223 36.5898 29.4147 38.3587 30.5996 39.7128C31.7845 41.067 33.3249 41.7441 35.2207 41.7441C36.321 41.7441 37.4043 41.4817 38.4707 40.957C39.5371 40.4153 40.3411 39.7298 40.8828 38.9003V29.9882C40.3411 29.1588 39.5371 28.4817 38.4707 27.957C37.4043 27.4153 36.321 27.1445 35.2207 27.1445C33.3249 27.1445 31.7845 27.8131 30.5996 29.1503C29.4147 30.4876 28.8223 32.2395 28.8223 34.4062Z" fill="black"/>
</svg>
