<svg width="40" height="40" viewBox="0 0 40 40" fill="none" xmlns="http://www.w3.org/2000/svg">
<path d="M2.27273 6.81818C1.03722 6.81818 0 7.8554 0 9.0909V30.9091C0 32.1446 1.03722 33.1818 2.27273 33.1818H37.7273C38.9628 33.1818 40 32.1446 40 30.9091V9.0909C40 7.8554 38.9628 6.81818 37.7273 6.81818H2.27273V6.81818ZM4.88636 9.54545H35.1136L20.483 22.6136C20.2836 22.7918 19.7164 22.7918 19.517 22.6136L4.88636 9.54545ZM2.72727 11.2642L12.9403 20.3977L2.72727 28.8495V11.2642ZM37.2727 11.2642V28.8495L27.0597 20.3977L37.2727 11.2642ZM15 22.2301L17.6989 24.6449C19.023 25.8283 20.977 25.8283 22.3011 24.6449L25 22.2301L34.9432 30.4545H5.05682L15 22.2301V22.2301Z" fill="#38464A"/>
</svg>
