<svg width="40" height="40" viewBox="0 0 40 40" fill="none" xmlns="http://www.w3.org/2000/svg">
<path fill-rule="evenodd" clip-rule="evenodd" d="M20 0C8.9588 0 0 8.9588 0 20C0 31.0412 8.9588 40 20 40C31.0195 40 40 31.0412 40 20C40 8.9588 31.0195 0 20 0ZM33.2104 9.21908C35.5965 12.1258 37.0282 15.8352 37.0716 19.8482C36.5076 19.7397 30.8677 18.59 25.1844 19.3058C25.0542 19.0239 24.9458 18.7202 24.8156 18.4165C24.4686 17.5922 24.0781 16.7462 23.6876 15.9436C29.9783 13.384 32.8416 9.69632 33.2104 9.21908ZM20 2.95011C24.3384 2.95011 28.308 4.577 31.3232 7.24512C31.0195 7.67896 28.4382 11.128 22.3644 13.4056C19.5662 8.26464 16.4642 4.0564 15.987 3.40564C17.2668 3.10195 18.6117 2.95011 20 2.95011ZM12.7332 4.55532C13.1887 5.16268 16.2256 9.39264 19.0672 14.4252C11.0846 16.551 4.03472 16.5076 3.27549 16.5076C4.38176 11.2148 7.96096 6.81128 12.7332 4.55532ZM2.90672 20.0217C2.90672 19.8482 2.90672 19.6746 2.90672 19.5011C3.64425 19.5228 11.9306 19.6312 20.4555 17.0716C20.9544 18.026 21.41 19.0022 21.8438 19.9783C21.6269 20.0434 21.3883 20.1085 21.1714 20.1735C12.3644 23.0152 7.67896 30.7809 7.28852 31.4317C4.577 28.4165 2.90672 24.4035 2.90672 20.0217ZM20 37.0933C16.0521 37.0933 12.4078 35.7484 9.52276 33.4924C9.82648 32.8634 13.2972 26.1822 22.9284 22.82C22.9718 22.7983 22.9935 22.7983 23.0369 22.7766C25.4447 29.0022 26.4208 34.2299 26.6811 35.7267C24.6204 36.616 22.3644 37.0933 20 37.0933ZM29.5228 34.1649C29.3492 33.1236 28.4382 28.1345 26.2039 21.9957C31.5618 21.1497 36.2473 22.538 36.833 22.7332C36.0954 27.4837 33.3622 31.5835 29.5228 34.1649Z" fill="#38464A"/>
</svg>
