<svg width="128" height="128" viewBox="0 0 128 128" fill="none" xmlns="http://www.w3.org/2000/svg">
<g filter="url(#filter0_d)">
<rect x="35" y="31" width="58" height="58" rx="8" fill="#F7E841"/>
</g>
<path d="M25.9727 49.0293C25.2109 48.2507 24.8301 47.3197 24.8301 46.2363C24.8301 45.153 25.2109 44.2305 25.9727 43.4688C26.7513 42.707 27.6738 42.3262 28.7402 42.3262C29.8405 42.3262 30.7715 42.707 31.5332 43.4688C32.3118 44.2305 32.7012 45.153 32.7012 46.2363C32.7012 47.3197 32.3118 48.2507 31.5332 49.0293C30.7715 49.791 29.8405 50.1719 28.7402 50.1719C27.6738 50.1719 26.7513 49.791 25.9727 49.0293ZM25.4648 78V52.8887H32.0664V78H25.4648ZM37.0176 65.4062C37.0176 61.3945 38.0501 58.2038 40.1152 55.834C42.1973 53.4473 44.8717 52.2539 48.1387 52.2539C49.6621 52.2539 51.0924 52.584 52.4297 53.2441C53.7669 53.8874 54.918 54.8438 55.8828 56.1133V43.3164H62.5352V78H55.8828V74.7754C53.8346 77.3483 51.2533 78.6348 48.1387 78.6348C44.8887 78.6348 42.2227 77.4583 40.1406 75.1055C38.0586 72.7526 37.0176 69.5195 37.0176 65.4062ZM43.8223 65.4062C43.8223 67.5898 44.4147 69.3587 45.5996 70.7129C46.7845 72.0671 48.3249 72.7441 50.2207 72.7441C51.321 72.7441 52.4043 72.4818 53.4707 71.957C54.5371 71.4154 55.3411 70.7298 55.8828 69.9004V60.9883C55.3411 60.1589 54.5371 59.4818 53.4707 58.957C52.4043 58.4154 51.321 58.1445 50.2207 58.1445C48.3249 58.1445 46.7845 58.8132 45.5996 60.1504C44.4147 61.4876 43.8223 63.2396 43.8223 65.4062Z" fill="black"/>
<defs>
<filter id="filter0_d" x="0" y="0" width="128" height="128" filterUnits="userSpaceOnUse" color-interpolation-filters="sRGB">
<feFlood flood-opacity="0" result="BackgroundImageFix"/>
<feColorMatrix in="SourceAlpha" type="matrix" values="0 0 0 0 0 0 0 0 0 0 0 0 0 0 0 0 0 0 127 0"/>
<feOffset dy="4"/>
<feGaussianBlur stdDeviation="17.5"/>
<feColorMatrix type="matrix" values="0 0 0 0 0 0 0 0 0 0 0 0 0 0 0 0 0 0 0.15 0"/>
<feBlend mode="normal" in2="BackgroundImageFix" result="effect1_dropShadow"/>
<feBlend mode="normal" in="SourceGraphic" in2="effect1_dropShadow" result="shape"/>
</filter>
</defs>
</svg>
