<svg width="98" height="92" viewBox="0 0 98 92" fill="none" xmlns="http://www.w3.org/2000/svg">
<g filter="url(#filter0_d)">
<rect x="25" y="15" width="58" height="58" rx="8" fill="#F7E841"/>
</g>
<path d="M15.9727 33.0293C15.2109 32.2507 14.8301 31.3197 14.8301 30.2363C14.8301 29.153 15.2109 28.2305 15.9727 27.4688C16.7513 26.707 17.6738 26.3262 18.7402 26.3262C19.8405 26.3262 20.7715 26.707 21.5332 27.4688C22.3118 28.2305 22.7012 29.153 22.7012 30.2363C22.7012 31.3197 22.3118 32.2507 21.5332 33.0293C20.7715 33.791 19.8405 34.1719 18.7402 34.1719C17.6738 34.1719 16.7513 33.791 15.9727 33.0293ZM15.4648 62V36.8887H22.0664V62H15.4648ZM27.0176 49.4062C27.0176 45.3945 28.0501 42.2038 30.1152 39.834C32.1973 37.4473 34.8717 36.2539 38.1387 36.2539C39.6621 36.2539 41.0924 36.584 42.4297 37.2441C43.7669 37.8874 44.918 38.8438 45.8828 40.1133V27.3164H52.5352V62H45.8828V58.7754C43.8346 61.3483 41.2533 62.6348 38.1387 62.6348C34.8887 62.6348 32.2227 61.4583 30.1406 59.1055C28.0586 56.7526 27.0176 53.5195 27.0176 49.4062ZM33.8223 49.4062C33.8223 51.5898 34.4147 53.3587 35.5996 54.7129C36.7845 56.0671 38.3249 56.7441 40.2207 56.7441C41.321 56.7441 42.4043 56.4818 43.4707 55.957C44.5371 55.4154 45.3411 54.7298 45.8828 53.9004V44.9883C45.3411 44.1589 44.5371 43.4818 43.4707 42.957C42.4043 42.4154 41.321 42.1445 40.2207 42.1445C38.3249 42.1445 36.7845 42.8132 35.5996 44.1504C34.4147 45.4876 33.8223 47.2396 33.8223 49.4062Z" fill="black"/>
<defs>
<filter id="filter0_d" x="10" y="4" width="88" height="88" filterUnits="userSpaceOnUse" color-interpolation-filters="sRGB">
<feFlood flood-opacity="0" result="BackgroundImageFix"/>
<feColorMatrix in="SourceAlpha" type="matrix" values="0 0 0 0 0 0 0 0 0 0 0 0 0 0 0 0 0 0 127 0"/>
<feOffset dy="4"/>
<feGaussianBlur stdDeviation="7.5"/>
<feColorMatrix type="matrix" values="0 0 0 0 0 0 0 0 0 0 0 0 0 0 0 0 0 0 0.1 0"/>
<feBlend mode="normal" in2="BackgroundImageFix" result="effect1_dropShadow"/>
<feBlend mode="normal" in="SourceGraphic" in2="effect1_dropShadow" result="shape"/>
</filter>
</defs>
</svg>
