<svg width="32" height="32" viewBox="0 0 32 32" fill="none" xmlns="http://www.w3.org/2000/svg">
<rect x="6.10352e-05" width="32" height="32" rx="8" fill="#F7E841"/>
<path d="M5.96393 9.507C5.54367 9.07741 5.33354 8.56376 5.33354 7.96606C5.33354 7.36835 5.54367 6.85937 5.96393 6.43912C6.39353 6.01886 6.90251 5.80873 7.49087 5.80873C8.09791 5.80873 8.61156 6.01886 9.03182 6.43912C9.46142 6.85937 9.67621 7.36835 9.67621 7.96606C9.67621 8.56376 9.46142 9.07741 9.03182 9.507C8.61156 9.92726 8.09791 10.1374 7.49087 10.1374C6.90251 10.1374 6.39353 9.92726 5.96393 9.507ZM5.68376 25.4908V11.6363H9.326V25.4908H5.68376Z" fill="black"/>
<path d="M12.0577 18.5426C12.0577 16.3292 12.6274 14.5688 13.7667 13.2613C14.9154 11.9445 16.391 11.2861 18.1935 11.2861C19.034 11.2861 19.8231 11.4682 20.5609 11.8324C21.2987 12.1873 21.9338 12.715 22.4661 13.4154V6.35506H26.1363V25.4908H22.4661V23.7117C21.3361 25.1313 19.9118 25.8411 18.1935 25.8411C16.4004 25.8411 14.9294 25.192 13.7807 23.8939C12.632 22.5957 12.0577 20.812 12.0577 18.5426ZM15.812 18.5426C15.812 19.7473 16.1389 20.7232 16.7926 21.4704C17.4463 22.2175 18.2962 22.5911 19.3422 22.5911C19.9492 22.5911 20.5469 22.4463 21.1353 22.1568C21.7236 21.8579 22.1672 21.4797 22.4661 21.0221V16.1051C22.1672 15.6474 21.7236 15.2739 21.1353 14.9844C20.5469 14.6855 19.9492 14.5361 19.3422 14.5361C18.2962 14.5361 17.4463 14.905 16.7926 15.6428C16.1389 16.3806 15.812 17.3472 15.812 18.5426Z" fill="black"/>
</svg>
