<svg width="256" height="256" viewBox="0 0 256 256" fill="none" xmlns="http://www.w3.org/2000/svg">
<rect x="6.10352e-05" width="256" height="256" rx="8" fill="#F7E841"/>
<path d="M47.7114 76.056C44.3494 72.6192 42.6683 68.5101 42.6683 63.7284C42.6683 58.9468 44.3494 54.875 47.7114 51.5129C51.1482 48.1509 55.2201 46.4698 59.927 46.4698C64.7833 46.4698 68.8925 48.1509 72.2545 51.5129C75.6913 54.875 77.4097 58.9468 77.4097 63.7284C77.4097 68.5101 75.6913 72.6192 72.2545 76.056C68.8925 79.4181 64.7833 81.0991 59.927 81.0991C55.2201 81.0991 51.1482 79.4181 47.7114 76.056ZM45.4701 203.927V93.0905H74.608V203.927H45.4701Z" fill="black"/>
<path d="M96.4614 148.341C96.4614 130.634 101.019 116.55 110.134 106.091C119.324 95.556 131.128 90.2888 145.548 90.2888C152.272 90.2888 158.585 91.7457 164.487 94.6595C170.39 97.4986 175.47 101.72 179.729 107.323V50.8405H209.091V203.927H179.729V189.694C170.688 201.05 159.295 206.728 145.548 206.728C131.203 206.728 119.436 201.536 110.246 191.151C101.056 180.766 96.4614 166.496 96.4614 148.341ZM126.496 148.341C126.496 157.978 129.111 165.786 134.341 171.763C139.571 177.74 146.369 180.728 154.737 180.728C159.594 180.728 164.375 179.57 169.082 177.254C173.789 174.864 177.338 171.838 179.729 168.177V128.841C177.338 125.18 173.789 122.191 169.082 119.875C164.375 117.484 159.594 116.289 154.737 116.289C146.369 116.289 139.571 119.24 134.341 125.142C129.111 131.045 126.496 138.777 126.496 148.341Z" fill="black"/>
</svg>
