<svg width="96" height="25" viewBox="0 0 96 25" fill="none" xmlns="http://www.w3.org/2000/svg">
<path fill-rule="evenodd" clip-rule="evenodd" d="M79.2931 6.0402C82.9862 6.0402 83.6524 9.59088 83.6524 10.5491H75.1998C75.1998 8.16539 77.1213 6.0402 79.2931 6.0402ZM80.0964 19.0333C78.118 19.0333 75.5278 17.5704 75.2051 15.1545H86.7642C87.8124 15.1545 88.8439 14.7549 89.5669 13.971C90.2879 13.1891 90.6484 12.1654 90.581 11.0937C90.5734 10.9952 90.5658 10.9095 90.5582 10.8482C89.7677 4.80403 84.9695 0.247131 79.3991 0.247131C73.1804 0.247131 68.124 5.79744 68.124 12.6208C68.124 19.4472 73.1804 25 79.3991 25C83.0051 25 85.6618 23.8569 87.4897 22.6059C89.159 21.4638 89.1775 18.9366 87.5359 17.7526C86.5378 17.0327 85.2133 17.0608 84.2262 17.7964C83.0396 18.6805 81.9007 19.0333 80.0964 19.0333Z" fill="#38464A"/>
<path fill-rule="evenodd" clip-rule="evenodd" d="M61.4795 2.6975L57.1271 15.1571L52.7744 2.6975C52.2605 1.22646 50.9099 0.246094 49.3971 0.246094C46.7768 0.246094 45.0389 3.05301 46.1359 5.51278L53.8635 22.8398C54.4506 24.1559 55.7248 24.9992 57.1271 24.9992C58.5291 24.9992 59.8033 24.1559 60.3904 22.8398L68.1183 5.51278C69.215 3.05301 67.4771 0.246094 64.8571 0.246094C63.3441 0.246094 61.9934 1.22646 61.4795 2.6975Z" fill="#38464A"/>
<path fill-rule="evenodd" clip-rule="evenodd" d="M37.8465 15.4552C37.8465 20.4966 30.5654 20.7859 30.5483 17.1399C30.5335 13.9876 33.8304 13.5626 37.8465 14.7749V15.4552ZM41.777 2.52232C39.776 1.01189 37.3489 0.246216 34.5631 0.246216C31.2838 0.246216 29.0415 0.834139 27.4547 1.34648C23.7991 2.52626 25.0771 8.17702 29.3373 7.15505C33.001 6.27932 37.8635 5.78865 37.8635 10.0471L37.8638 10.3268C36.7065 9.98535 34.2856 9.42796 31.4903 9.69927C26.6009 10.1752 23.4414 13.0779 23.4414 17.0943C23.4414 21.8962 26.6204 24.9993 31.5401 24.9993C35.0678 24.9993 37.0905 23.4327 38.0931 22.4408C38.2682 22.9206 38.5406 23.3601 38.8993 23.7306C39.5674 24.421 40.4547 24.8014 41.3983 24.8014H41.5269C43.4761 24.8014 45.0617 23.1622 45.0617 21.1473V10.7454C45.0617 10.674 45.0629 10.5915 45.0641 10.4992C45.0829 9.01016 45.133 5.05473 41.777 2.52232Z" fill="#38464A"/>
<path fill-rule="evenodd" clip-rule="evenodd" d="M9.2467 19.0361H7.34926V6.23647H9.2467C13.3359 6.23647 15.4332 9.10149 15.4332 12.6362C15.4332 16.1706 13.2964 19.0361 9.2467 19.0361ZM10.6183 0.633972H3.95305C1.97797 0.633972 0.371094 2.29508 0.371094 4.3368V20.9355C0.371094 22.9775 1.97797 24.6384 3.95305 24.6384H10.8007C13.9387 24.6384 16.8788 23.3645 19.0794 21.0515C21.2791 18.7387 22.4618 15.6775 22.4094 12.4313C22.3046 5.92602 17.015 0.633972 10.6183 0.633972Z" fill="#38464A"/>
<path fill-rule="evenodd" clip-rule="evenodd" d="M95.3709 1.78371C95.3709 2.28475 95.2061 2.70563 94.8717 3.05135C94.5372 3.39707 94.1252 3.56742 93.6454 3.56742C93.1607 3.56742 92.7536 3.39707 92.4191 3.05135C92.0847 2.70563 91.9199 2.28475 91.9199 1.78371C91.9199 1.28267 92.0847 0.861793 92.4191 0.516074C92.7536 0.170354 93.1607 0 93.6454 0C94.1252 0 94.5372 0.170354 94.8717 0.516074C95.2061 0.861793 95.3709 1.28267 95.3709 1.78371ZM95.1432 1.78371C95.1432 1.35783 94.9978 0.992065 94.7021 0.691439C94.4113 0.385803 94.0575 0.235491 93.6455 0.235491C93.2335 0.235491 92.8797 0.385803 92.5889 0.691439C92.2932 0.992065 92.1478 1.35783 92.1478 1.78371C92.1478 2.2096 92.2932 2.57536 92.5889 2.87598C92.8797 3.18162 93.2335 3.33193 93.6455 3.33193C94.0575 3.33193 94.4113 3.18162 94.7069 2.87598C94.9978 2.57536 95.1432 2.2096 95.1432 1.78371ZM93.8878 1.924L94.4258 2.81586H94.0526L93.5727 1.95907H93.3255V2.81586H93.0153V0.75156L93.7036 0.75657C93.8781 0.75657 94.0235 0.811685 94.1447 0.916904C94.2658 1.02212 94.3288 1.16743 94.3288 1.35281C94.3288 1.52818 94.2852 1.65845 94.1931 1.74863C94.1059 1.83882 94.0041 1.89895 93.8878 1.924ZM94.0089 1.35782C94.0089 1.13236 93.8684 1.02213 93.5921 1.02213H93.3255V1.69352H93.5921C93.8684 1.69352 94.0089 1.58329 94.0089 1.35782Z" fill="#38464A"/>
</svg>
