<svg width="30" height="30" viewBox="0 0 30 30" fill="none" xmlns="http://www.w3.org/2000/svg">
<path d="M1.70455 5.11365C0.777917 5.11365 0 5.89157 0 6.81819V23.1818C0 24.1085 0.777917 24.8864 1.70455 24.8864H28.2955C29.2221 24.8864 30 24.1085 30 23.1818V6.81819C30 5.89157 29.2221 5.11365 28.2955 5.11365H1.70455V5.11365ZM3.66477 7.1591H26.3352L15.3622 16.9602C15.2127 17.0938 14.7873 17.0938 14.6378 16.9602L3.66477 7.1591ZM2.04545 8.44814L9.70526 15.2983L2.04545 21.6371V8.44814ZM27.9545 8.44814V21.6371L20.2947 15.2983L27.9545 8.44814ZM11.25 16.6726L13.2741 18.4837C14.2672 19.3712 15.7328 19.3712 16.7259 18.4837L18.75 16.6726L26.2074 22.8409H3.79261L11.25 16.6726V16.6726Z" fill="#38464A"/>
</svg>
