<svg width="41" height="40" viewBox="0 0 41 40" fill="none" xmlns="http://www.w3.org/2000/svg">
<path fill-rule="evenodd" clip-rule="evenodd" d="M0.0195313 2.86534C0.0195313 1.28328 1.34291 -1.14441e-05 2.97545 -1.14441e-05H37.0636C38.6961 -1.14441e-05 40.0195 1.28328 40.0195 2.86534V37.1346C40.0195 38.7172 38.6961 40 37.0636 40H2.97545C1.34291 40 0.0195313 38.7172 0.0195313 37.1346L0.0195313 2.86534ZM12.1448 33.4841L12.1448 15.4219H6.10312L6.10312 33.4841H12.1448ZM9.12391 12.9558C11.2308 12.9558 12.5421 11.5688 12.5421 9.8355C12.5028 8.06317 11.2308 6.71467 9.16388 6.71467C7.09722 6.71467 5.74597 8.06317 5.74597 9.8355C5.74597 11.5688 7.05703 12.9558 9.08453 12.9558H9.1238H9.12391ZM21.5294 33.4841H15.4879C15.4879 33.4841 15.5672 17.1167 15.4879 15.4219H21.5295V17.9792C21.5159 18.0001 21.5024 18.0208 21.4892 18.0414H21.5295V17.9792C22.3324 16.7484 23.7694 14.9981 26.9743 14.9981C30.9492 14.9981 33.9298 17.5796 33.9298 23.1275V33.4841H27.8887V23.8213C27.8887 21.3931 27.0142 19.7368 24.828 19.7368C23.159 19.7368 22.1649 20.8538 21.7282 21.9324C21.5686 22.3183 21.5294 22.8576 21.5294 23.3974V33.4841Z" fill="#38464A"/>
</svg>
