<svg width="30" height="30" viewBox="0 0 30 30" fill="none" xmlns="http://www.w3.org/2000/svg">
<path fill-rule="evenodd" clip-rule="evenodd" d="M0 2.14902C0 0.962469 0.99253 3.8147e-06 2.21694 3.8147e-06H27.783C29.0074 3.8147e-06 30 0.962469 30 2.14902V27.851C30 29.0379 29.0074 30 27.783 30H2.21694C0.99253 30 0 29.0379 0 27.851L0 2.14902ZM9.09392 25.1131L9.09392 11.5664H4.56269L4.56269 25.1131H9.09392ZM6.82828 9.71686C8.40842 9.71686 9.39192 8.67662 9.39192 7.37663C9.36247 6.04738 8.40842 5.03601 6.85826 5.03601C5.30826 5.03601 4.29483 6.04738 4.29483 7.37663C4.29483 8.67662 5.27812 9.71686 6.79875 9.71686H6.8282H6.82828ZM16.1324 25.1131H11.6013C11.6013 25.1131 11.6608 12.8376 11.6013 11.5664H16.1325V13.4844C16.1223 13.5 16.1122 13.5156 16.1022 13.531H16.1325V13.4844C16.7347 12.5613 17.8124 11.2485 20.2161 11.2485C23.1973 11.2485 25.4327 13.1847 25.4327 17.3456V25.1131H20.9019V17.8659C20.9019 16.0448 20.246 14.8026 18.6064 14.8026C17.3546 14.8026 16.609 15.6404 16.2815 16.4493C16.1618 16.7387 16.1324 17.1432 16.1324 17.5481V25.1131Z" fill="#38464A"/>
</svg>
