<svg width="40" height="40" viewBox="0 0 40 40" fill="none" xmlns="http://www.w3.org/2000/svg">
<path fill-rule="evenodd" clip-rule="evenodd" d="M19.9619 36.645C10.7626 36.645 3.27871 29.1608 3.27871 19.9618C3.27871 10.7629 10.7626 3.27868 19.9619 3.27868C29.1608 3.27868 36.6447 10.7629 36.6447 19.9618C36.6447 29.1608 29.1608 36.645 19.9619 36.645ZM19.9619 0.000213623C8.93709 0.000213623 0.000244141 8.93715 0.000244141 19.9618C0.000244141 30.9866 8.93709 39.9232 19.9619 39.9232C30.9863 39.9232 39.9231 30.9866 39.9231 19.9618C39.9231 8.93715 30.9863 0.000213623 19.9619 0.000213623Z" fill="#38464A"/>
<path fill-rule="evenodd" clip-rule="evenodd" d="M30.1825 21.7368L27.5289 19.9617L30.1825 18.1866V21.7368ZM21.0222 29.2612V24.3137L25.6209 21.2382L29.3332 23.7209L21.0222 29.2612ZM19.9616 22.4711L16.2098 19.9617L19.9616 17.4522L23.7131 19.9617L19.9616 22.4711ZM18.9007 29.2612L10.5896 23.7209L14.3022 21.2382L18.9007 24.3137V29.2612ZM9.74043 18.1866L12.3943 19.9617L9.74043 21.7368V18.1866ZM18.9007 10.6621V15.6096L14.3022 18.6858L10.5896 16.2023L18.9007 10.6621ZM21.0222 10.6621L29.3332 16.2023L25.6209 18.6858L21.0222 15.6096V10.6621ZM32.2946 16.0628C32.2923 16.0472 32.2884 16.0323 32.2859 16.0167C32.2806 15.9868 32.2752 15.9569 32.2673 15.9277C32.2627 15.9102 32.2563 15.8933 32.2508 15.8765C32.2423 15.8504 32.2339 15.8245 32.2235 15.7992C32.2163 15.7816 32.2079 15.7641 32.1998 15.7473C32.1887 15.7232 32.1771 15.6998 32.1637 15.6771C32.154 15.6602 32.1437 15.6439 32.1336 15.6278C32.1193 15.6056 32.1047 15.5842 32.0887 15.5634C32.0771 15.5479 32.0648 15.5323 32.0524 15.5173C32.0355 15.4979 32.018 15.4784 31.9995 15.4602C31.9856 15.446 31.9718 15.4317 31.9573 15.4187C31.9378 15.4011 31.9177 15.3842 31.8972 15.368C31.8814 15.3557 31.8657 15.3434 31.8492 15.3317C31.843 15.3278 31.8375 15.3226 31.8317 15.3187L20.5498 7.79748C20.1935 7.55986 19.7294 7.55986 19.373 7.79748L8.09124 15.3187C8.08536 15.3226 8.07983 15.3278 8.07371 15.3317C8.05711 15.3434 8.04153 15.3557 8.02596 15.368C8.00519 15.3842 7.98502 15.4011 7.96596 15.4187C7.95098 15.4317 7.93736 15.446 7.92341 15.4602C7.90494 15.4784 7.88741 15.4979 7.87081 15.5173C7.85813 15.5323 7.84579 15.5479 7.83413 15.5634C7.81856 15.5842 7.80358 15.6056 7.78962 15.6278C7.7789 15.6439 7.76885 15.6602 7.75915 15.6771C7.74613 15.6998 7.73447 15.7232 7.72307 15.7473C7.71498 15.7641 7.70656 15.7816 7.69941 15.7992C7.68902 15.8245 7.6806 15.8504 7.67209 15.8765C7.66656 15.8933 7.66043 15.9102 7.65558 15.9277C7.64775 15.9569 7.64256 15.9868 7.63702 16.0167C7.63447 16.0323 7.63056 16.0472 7.6286 16.0628C7.62239 16.1082 7.6189 16.1543 7.6189 16.2011V23.7222C7.6189 23.769 7.62239 23.8151 7.6286 23.8612C7.63056 23.8762 7.63447 23.8917 7.63702 23.9066C7.64256 23.9365 7.64775 23.9663 7.65558 23.9956C7.66043 24.0131 7.66656 24.03 7.67209 24.0469C7.6806 24.0728 7.68902 24.0988 7.69941 24.1248C7.70656 24.1424 7.71498 24.1593 7.72307 24.1761C7.73447 24.2 7.74613 24.2234 7.75915 24.2468C7.76885 24.2632 7.7789 24.2793 7.78962 24.2955C7.80358 24.3177 7.81856 24.3391 7.83413 24.3599C7.84579 24.3761 7.85813 24.391 7.87081 24.4059C7.88741 24.4254 7.90494 24.4449 7.92341 24.4631C7.93736 24.4773 7.95098 24.4916 7.96596 24.5045C7.98502 24.5222 8.00519 24.5391 8.02596 24.5553C8.04153 24.5677 8.05711 24.5799 8.07371 24.5916C8.07983 24.5955 8.08536 24.6007 8.09124 24.6045L19.373 32.1258C19.5512 32.2446 19.7564 32.3044 19.9616 32.3044C20.1665 32.3044 20.3716 32.2446 20.5498 32.1258L31.8317 24.6045C31.8375 24.6007 31.843 24.5955 31.8492 24.5916C31.8657 24.5799 31.8814 24.5677 31.8972 24.5553C31.9177 24.5391 31.9378 24.5222 31.9573 24.5045C31.9718 24.4916 31.9856 24.4773 31.9995 24.4631C32.018 24.4449 32.0355 24.4254 32.0524 24.4059C32.0648 24.391 32.0771 24.3761 32.0887 24.3599C32.1047 24.3391 32.1193 24.3177 32.1336 24.2955C32.1437 24.2793 32.154 24.2632 32.1637 24.2468C32.1771 24.2234 32.1887 24.2 32.1998 24.1761C32.2079 24.1593 32.2163 24.1424 32.2235 24.1248C32.2339 24.0988 32.2423 24.0728 32.2508 24.0469C32.2563 24.03 32.2627 24.0131 32.2673 23.9956C32.2752 23.9663 32.2806 23.9365 32.2859 23.9066C32.2884 23.8917 32.2923 23.8762 32.2946 23.8612C32.3004 23.8151 32.3041 23.769 32.3041 23.7222V16.2011C32.3041 16.1543 32.3004 16.1082 32.2946 16.0628Z" fill="#38464A"/>
</svg>
