<svg width="29" height="30" viewBox="0 0 29 30" fill="none" xmlns="http://www.w3.org/2000/svg">
<g clip-path="url(#clip0)">
<path d="M4.99479 5.22179C5.93397 5.97438 6.28629 5.91695 8.04981 5.8009L24.6757 4.81617C25.0284 4.81617 24.7351 4.46917 24.6176 4.4115L21.8563 2.44252C21.3273 2.03738 20.6224 1.57338 19.2714 1.68944L3.17252 2.84767C2.58541 2.9051 2.46813 3.19464 2.70198 3.42676L4.99479 5.22179ZM5.99299 9.04369V26.299C5.99299 27.2264 6.46281 27.5733 7.52024 27.516L25.7921 26.4731C26.8501 26.4157 26.9679 25.7779 26.9679 25.0245V7.88498C26.9679 7.13286 26.6746 6.72724 26.027 6.78514L6.93266 7.88498C6.22802 7.94338 5.99299 8.29107 5.99299 9.04369ZM24.0309 9.96931C24.1481 10.491 24.0309 11.0122 23.5011 11.0708L22.6207 11.2438V23.9829C21.8563 24.3881 21.1515 24.6198 20.5641 24.6198C19.6237 24.6198 19.3882 24.33 18.6838 23.4619L12.9252 14.5445V23.1724L14.7474 23.578C14.7474 23.578 14.7474 24.6198 13.2772 24.6198L9.22426 24.8517C9.10652 24.6198 9.22426 24.0412 9.63536 23.9252L10.693 23.6361V12.2286L9.2245 12.1125C9.10676 11.5908 9.40006 10.8387 10.2232 10.7803L14.5711 10.4912L20.5641 19.5247V11.5334L19.0361 11.3604C18.9189 10.7226 19.3882 10.2596 19.9758 10.2021L24.0309 9.96931ZM1.82082 1.2843L18.5663 0.0679229C20.6226 -0.106048 21.1517 0.0104864 22.4442 0.93659L27.7895 4.64243C28.6715 5.27969 28.9655 5.45319 28.9655 6.14788V26.4731C28.9655 27.7469 28.4951 28.5002 26.8503 28.6155L7.40392 29.7738C6.16927 29.8319 5.58165 29.6583 4.93507 28.8471L0.998671 23.8094C0.293315 22.8821 0 22.1883 0 21.3766V3.31024C0 2.26855 0.470557 1.39964 1.82082 1.2843Z" fill="#38464A"/>
</g>
<defs>
<clipPath id="clip0">
<rect width="28.9655" height="30" fill="white"/>
</clipPath>
</defs>
</svg>
