<svg width="30" height="30" viewBox="0 0 30 30" fill="none" xmlns="http://www.w3.org/2000/svg">
<path fill-rule="evenodd" clip-rule="evenodd" d="M15.0982 0.413635C6.9218 0.413635 0.290894 7.04364 0.290894 15.2227C0.290894 21.7655 4.53362 27.3154 10.4182 29.2736C11.1591 29.41 11.4291 28.9527 11.4291 28.56C11.4291 28.2091 11.4163 27.2773 11.4091 26.0418C7.28998 26.9364 6.42089 24.0564 6.42089 24.0564C5.74725 22.3455 4.77634 21.89 4.77634 21.89C3.43179 20.9718 4.87816 20.99 4.87816 20.99C6.36452 21.0945 7.14633 22.5164 7.14633 22.5164C8.46724 24.7791 10.6127 24.1255 11.4563 23.7464C11.5909 22.79 11.9736 22.1373 12.3963 21.7673C9.10816 21.3936 5.65089 20.1227 5.65089 14.4482C5.65089 12.8318 6.22816 11.5091 7.17544 10.4745C7.02271 10.1 6.51452 8.59363 7.32088 6.55545C7.32088 6.55545 8.56361 6.15727 11.3927 8.07363C12.5736 7.74454 13.8409 7.58091 15.1 7.57454C16.3582 7.58091 17.6245 7.74454 18.8073 8.07363C21.6345 6.15727 22.8754 6.55545 22.8754 6.55545C23.6836 8.59363 23.1754 10.1 23.0236 10.4745C23.9727 11.5091 24.5454 12.8318 24.5454 14.4482C24.5454 20.1373 21.0827 21.3891 17.7845 21.7555C18.3154 22.2127 18.7891 23.1164 18.7891 24.4982C18.7891 26.4773 18.7709 28.0745 18.7709 28.56C18.7709 28.9564 19.0382 29.4173 19.7891 29.2727C25.6691 27.31 29.9082 21.7636 29.9082 15.2227C29.9082 7.04364 23.2773 0.413635 15.0982 0.413635Z" fill="#38464A"/>
</svg>
